<svg aria-hidden="true" style="position: absolute; width: 0; height: 0; overflow: hidden;" version="1.1" xmlns="http://www.w3.org/2000/svg" xmlns:xlink="http://www.w3.org/1999/xlink">
<defs>
<symbol id="icon-sound" viewBox="0 0 16 16">
<path d="M12.757 4.708c-0.406 0.405-1.062 0.405-1.468 0s-0.405-1.062 0-1.468l2.935-2.935c0.406-0.405 1.062-0.405 1.468 0 0.405 0.405 0.405 1.062 0 1.468l-2.935 2.935zM7.996 15.991l-3.996-3.996h-2.997c-0.552 0-0.999-0.447-0.999-0.999v-5.994c0-0.552 0.447-0.999 0.999-0.999h2.997l3.996-3.996c0 0 0.999-0.125 0.999 0.999 0 5.976 0 14.966 0 13.985 0 1.124-0.999 0.999-0.999 0.999zM6.997 4.004l-1.998 1.998h-2.997v3.996h2.997l1.998 1.998v-7.992zM11.992 8.999c-0.552 0-0.999-0.447-0.999-0.999s0.447-0.999 0.999-0.999h2.997c0.552 0 0.999 0.447 0.999 0.999s-0.447 0.999-0.999 0.999h-2.997zM12.757 11.292l2.935 2.935c0.405 0.406 0.405 1.063 0 1.468s-1.062 0.405-1.468 0l-2.935-2.935c-0.405-0.406-0.405-1.063 0-1.468s1.062-0.405 1.468 0z"></path>
</symbol>
<symbol id="icon-cog" viewBox="0 0 16 16">
<path d="M14.59 9.535c-0.839-1.454-0.335-3.317 1.127-4.164l-1.572-2.723c-0.449 0.263-0.972 0.414-1.529 0.414-1.68 0-3.042-1.371-3.042-3.062h-3.145c0.004 0.522-0.126 1.051-0.406 1.535-0.839 1.454-2.706 1.948-4.17 1.106l-1.572 2.723c0.453 0.257 0.845 0.634 1.123 1.117 0.838 1.452 0.336 3.311-1.12 4.16l1.572 2.723c0.448-0.261 0.967-0.41 1.522-0.41 1.675 0 3.033 1.362 3.042 3.046h3.145c-0.001-0.517 0.129-1.040 0.406-1.519 0.838-1.452 2.7-1.947 4.163-1.11l1.572-2.723c-0.45-0.257-0.839-0.633-1.116-1.113zM8 11.24c-1.789 0-3.24-1.45-3.24-3.24s1.45-3.24 3.24-3.24c1.789 0 3.24 1.45 3.24 3.24s-1.45 3.24-3.24 3.24z"></path>
</symbol>
<symbol id="icon-stats-bars" viewBox="0 0 16 16">
<path d="M0 13h16v2h-16zM2 9h2v3h-2zM5 5h2v7h-2zM8 8h2v4h-2zM11 2h2v10h-2z"></path>
</symbol>
<symbol id="icon-stats-bars2" viewBox="0 0 16 16">
<path d="M4.5 6h-3c-0.275 0-0.5 0.225-0.5 0.5v9c0 0.275 0.225 0.5 0.5 0.5h3c0.275 0 0.5-0.225 0.5-0.5v-9c0-0.275-0.225-0.5-0.5-0.5zM4.5 15h-3v-4h3v4zM9.5 4h-3c-0.275 0-0.5 0.225-0.5 0.5v11c0 0.275 0.225 0.5 0.5 0.5h3c0.275 0 0.5-0.225 0.5-0.5v-11c0-0.275-0.225-0.5-0.5-0.5zM9.5 15h-3v-5h3v5zM14.5 2h-3c-0.275 0-0.5 0.225-0.5 0.5v13c0 0.275 0.225 0.5 0.5 0.5h3c0.275 0 0.5-0.225 0.5-0.5v-13c0-0.275-0.225-0.5-0.5-0.5zM14.5 15h-3v-6h3v6z"></path>
</symbol>
<symbol id="icon-checkmark" viewBox="0 0 16 16">
<path d="M13.5 2l-7.5 7.5-3.5-3.5-2.5 2.5 6 6 10-10z"></path>
</symbol>
<symbol id="icon-stop2" viewBox="0 0 16 16">
<path d="M2 2h12v12h-12z"></path>
</symbol>
<symbol id="icon-arrow-up" viewBox="0 0 16 16">
<path d="M8 0.5l-7.5 7.5h4.5v8h6v-8h4.5z"></path>
</symbol>
<symbol id="icon-checkbox-unchecked" viewBox="0 0 16 16">
<path d="M14 0h-12c-1.1 0-2 0.9-2 2v12c0 1.1 0.9 2 2 2h12c1.1 0 2-0.9 2-2v-12c0-1.1-0.9-2-2-2zM14 14h-12v-12h12v12z"></path>
</symbol>
<symbol id="icon-soundcloud" viewBox="0 0 16 16">
<path d="M13.937 8.034c-0.283 0-0.552 0.055-0.798 0.154-0.164-1.787-1.723-3.188-3.625-3.188-0.465 0-0.917 0.088-1.317 0.237-0.156 0.058-0.197 0.117-0.197 0.233v6.292c0 0.121 0.098 0.222 0.221 0.234 0.005 0.001 5.68 0.003 5.717 0.003 1.139 0 2.062-0.888 2.062-1.983s-0.924-1.983-2.063-1.983zM6.25 12h0.5l0.25-3.503-0.25-3.497h-0.5l-0.25 3.497zM4.75 12h-0.5l-0.25-2.543 0.25-2.457h0.5l0.25 2.5zM2.25 12h0.5l0.25-2-0.25-2h-0.5l-0.25 2zM0.25 11h0.5l0.25-1-0.25-1h-0.5l-0.25 1z"></path>
</symbol>
<symbol id="icon-linkedin2" viewBox="0 0 16 16">
<path d="M6 6h2.767v1.418h0.040c0.385-0.691 1.327-1.418 2.732-1.418 2.921 0 3.461 1.818 3.461 4.183v4.817h-2.885v-4.27c0-1.018-0.021-2.329-1.5-2.329-1.502 0-1.732 1.109-1.732 2.255v4.344h-2.883v-9z"></path>
<path d="M1 6h3v9h-3v-9z"></path>
<path d="M4 3.5c0 0.828-0.672 1.5-1.5 1.5s-1.5-0.672-1.5-1.5c0-0.828 0.672-1.5 1.5-1.5s1.5 0.672 1.5 1.5z"></path>
</symbol>
<symbol id="icon-view_column" viewBox="0 0 24 24">
<path d="M15.984 5.016h5.016v12.984h-5.016v-12.984zM3.984 18v-12.984h5.016v12.984h-5.016zM9.984 18v-12.984h5.016v12.984h-5.016z"></path>
</symbol>
</defs>
</svg>
